# xmcd CD database file
#
# Track frame offsets:
#	150
#	15365
#	30019
#	48905
#	69282
#	82238
#	96475
#	108853
#	121266
#	135262
#	145256
#
# Disc length: 2116 seconds
#
# Revision: 0
# Processed by: cddbd v1.5.2PL0 Copyright (c) Steve Scherf et al.
# Submitted via: CDex 1.51
#
DISCID=8008420b
DTITLE=Frank Sinatra - The Voice
DYEAR=1900
DGENRE=Jazz
TTITLE0=Come Fly With Me
TTITLE1=Put Your Dreams Away
TTITLE2=Only The Lonely
TTITLE3=One For My Baby
TTITLE4=Young At Heart
TTITLE5=Violets For Your Furs
TTITLE6=Ring A Ding Ding
TTITLE7=The Nearness Of You
TTITLE8=Talk To Me
TTITLE9=Let's Fall In Love
TTITLE10=Dream
EXTD=
EXTT0=
EXTT1=
EXTT2=
EXTT3=
EXTT4=
EXTT5=
EXTT6=
EXTT7=
EXTT8=
EXTT9=
EXTT10=
PLAYORDER=
